<svg width="400" height="600" viewBox="0 0 400 600" fill="none" xmlns="http://www.w3.org/2000/svg">
<rect width="400" height="600" fill="#C70101" fill-opacity="0.9"/>
<path fill-rule="evenodd" clip-rule="evenodd" d="M94.4073 336C71.9828 335.994 57 319.982 57 300.565C57 281.146 72.021 264.949 94.3752 265H305.625C327.979 264.949 343 281.146 343 300.565C343 319.982 328.014 335.994 305.588 336H94.4073Z" fill="white"/>
<path fill-rule="evenodd" clip-rule="evenodd" d="M94.6151 274C76.8854 274.03 66 285.865 66 300.502C66 315.137 76.8152 327.065 94.6151 327H305.38C323.179 327.065 334 315.137 334 300.502C334 285.865 323.113 274.032 305.38 274H94.6151Z" fill="#C70101"/>
<path fill-rule="evenodd" clip-rule="evenodd" d="M85.0046 284.006H95.3665L109.715 306.793L109.707 284.006H119.991V316.69H109.721L95.3005 293.901V316.69H85L85.0046 284.006ZM175.921 287.371H185.936V291.768H191.355V294.996H185.936L185.943 316.69H175.921L175.926 294.996H170.487V291.771H175.929L175.921 287.371ZM125.721 294.957H135.728V316.69H125.721V294.957ZM125.699 284H135.728V290.682H125.699V284ZM305.098 305.648C305.098 305.648 305.092 308.929 305.092 310.25C305.092 313.713 303.011 315.146 301 315.146C298.999 315.146 296.902 313.713 296.902 310.25C296.902 308.929 296.908 305.567 296.908 305.567C296.908 305.567 296.917 302.354 296.917 301.033C296.917 297.584 299.005 296.165 301 296.165C302.996 296.165 305.092 297.584 305.092 301.033C305.092 302.354 305.092 304.787 305.098 305.663V305.648ZM301.078 293.472C293.005 293.472 286.46 298.936 286.46 305.679C286.46 312.416 293.006 317.879 301.078 317.879C309.161 317.879 315.706 312.416 315.706 305.679C315.706 298.936 309.161 293.472 301.078 293.472ZM273.322 284.006H283.198V316.683H273.307L273.301 315.433C269.476 317.792 265.148 317.786 261.78 316.248C260.878 315.834 254.934 313.032 254.934 305.475C254.934 299.733 260.45 293.472 267.657 294.092C270.033 294.3 271.718 295.15 273.321 296.031L273.322 284.006ZM273.395 305.713V301.83C273.395 298.468 271.034 297.612 269.476 297.612C267.879 297.612 265.548 298.468 265.548 301.83C265.548 302.939 265.554 305.704 265.554 305.704C265.554 305.704 265.548 308.408 265.548 309.566C265.548 312.925 267.879 313.802 269.476 313.802C271.034 313.802 273.395 312.925 273.395 309.566V305.713ZM159.153 293.952C162.892 293.851 170.487 296.257 170.432 304.864C170.421 306.388 170.429 316.685 170.429 316.685H160.487V302.413C160.487 300.516 158.642 298.409 155.918 298.409C153.19 298.409 151.165 300.516 151.165 302.413L151.176 316.685H141.239L141.231 294.954L151.174 294.946C151.174 294.946 151.164 296.697 151.174 297.23C153.331 295.207 156.173 294.04 159.153 293.952ZM240.482 293.952C244.215 293.851 251.809 296.257 251.761 304.864C251.746 306.388 251.752 316.685 251.752 316.685H241.81V302.413C241.81 300.516 239.968 298.409 237.241 298.409C234.514 298.409 232.484 300.516 232.484 302.413L232.499 316.685H222.565L222.571 294.954L232.499 294.946C232.499 294.946 232.484 296.697 232.499 297.23C234.656 295.206 237.5 294.038 240.482 293.952ZM200.679 302.53C200.66 300.629 200.7 299.358 201.335 298.265C202.123 296.927 203.561 296.29 204.861 296.284H204.855C206.165 296.29 207.593 296.927 208.375 298.265C209.01 299.357 209.047 300.629 209.031 302.53H200.679ZM208.988 309.086C208.988 309.086 208.998 309.182 208.998 310.407C208.998 314.382 206.335 315.268 204.861 315.268C203.381 315.268 200.671 314.382 200.671 310.407C200.671 309.212 200.686 305.918 200.686 305.918C200.686 305.918 219.531 305.924 219.531 305.918C219.531 299.176 212.909 293.592 204.769 293.592C196.634 293.592 190.035 299.057 190.035 305.792C190.035 312.535 196.634 318 204.769 318C211.521 318 217.222 314.213 218.968 309.077L208.988 309.086ZM316.402 291.783H315.249V284.34H318.14C319.925 284.34 320.814 284.99 320.814 286.455C320.814 287.785 319.963 288.365 318.847 288.505L321 291.783H319.718L317.716 288.555H316.402V291.783ZM317.773 287.599C318.747 287.599 319.609 287.532 319.609 286.387C319.609 285.467 318.758 285.294 317.965 285.294H316.4V287.599H317.773Z" fill="white"/>
<path fill-rule="evenodd" clip-rule="evenodd" d="M311 287.482C311 283.751 313.99 281 317.519 281C321.019 281 324 283.753 324 287.482C324 291.25 321.019 294 317.519 294C313.99 294 311 291.252 311 287.482ZM317.519 292.916C320.424 292.916 322.71 290.613 322.71 287.482C322.71 284.407 320.426 282.082 317.519 282.082C314.585 282.082 312.294 284.407 312.294 287.482C312.294 290.614 314.585 292.916 317.519 292.916Z" fill="white"/>
</svg>
